# Blender v2.76 (sub 0) OBJ File: 'adoors_Ldoor.blend'
# www.blender.org
mtllib adoors_Ldoor_open.mtl
o Cube.003_Cube.000
v 0.508182 -0.499176 -0.500426
v 0.505969 -0.499081 -0.396449
v 0.401992 -0.499195 -0.398663
v 0.404206 -0.499291 -0.502639
v 0.506015 1.500822 -0.502307
v 0.503802 1.500917 -0.398330
v 0.399825 1.500803 -0.400544
v 0.402039 1.500707 -0.504520
vt 0.026316 1.000000
vt 0.026316 0.968750
vt 0.000000 0.968750
vt 0.000100 0.999900
vt 0.842105 1.000000
vt 0.813143 0.999900
vt 0.815789 0.968750
vt 0.842105 0.968750
vt 0.842105 -0.000000
vt 0.815789 1.000000
vt 0.815789 0.000000
vt 0.026316 0.000000
vt 0.000000 1.000000
vt 0.000000 0.000000
vn 0.564300 0.578500 0.588900
vn 0.565500 -0.576200 0.590000
usemtl Material
s 1
f 1/1/1 4/2/1 3/3/1 2/4/1
f 5/5/2 6/6/2 7/7/2 8/8/2
f 1/9/1 5/5/2 6/10/2 2/11/1
f 2/12/1 6/1/2 7/13/2 3/14/1
f 3/11/1 4/9/1 8/5/2 7/10/2
f 5/13/2 8/1/2 4/12/1 1/14/1
o Cube.000
v -0.400726 -0.499178 -1.397053
v -0.402675 -0.499149 -1.293071
v -0.506657 -0.499187 -1.295020
v -0.504708 -0.499215 -1.399002
v -0.401433 1.500822 -1.397618
v -0.403382 1.500850 -1.293636
v -0.507363 1.500813 -1.295585
v -0.505415 1.500784 -1.399567
vt 0.026316 1.000000
vt 0.026316 0.968750
vt 0.000000 0.968750
vt 0.000100 0.999900
vt 0.842105 1.000000
vt 0.813143 0.999900
vt 0.815789 0.968750
vt 0.842105 0.968750
vt 0.842105 -0.000000
vt 0.815789 1.000000
vt 0.815789 0.000000
vt 0.026316 0.000000
vt 0.000000 1.000000
vt 0.000000 0.000000
vn 0.566200 0.577700 0.587900
vn 0.566600 -0.577000 0.588200
usemtl Material
s 1
f 9/15/3 12/16/3 11/17/3 10/18/3
f 13/19/4 14/20/4 15/21/4 16/22/4
f 9/23/3 13/19/4 14/24/4 10/25/3
f 10/26/3 14/15/4 15/27/4 11/28/3
f 11/25/3 12/23/3 16/19/4 15/24/4
f 13/27/4 16/15/4 12/26/3 9/28/3
o Plane.001
v 0.404579 1.500818 -0.502931
v 0.404580 -0.499182 -0.502931
v -0.407513 1.500817 -1.302998
v -0.407512 -0.499183 -1.302998
vt 0.421053 1.000000
vt -0.000000 1.000000
vt 0.000000 0.000000
vt 0.421053 0.000000
vn -0.701800 -0.000000 0.712400
usemtl glass
s off
f 17/29/5 19/30/5 20/31/5 18/32/5
