# Blender v2.76 (sub 0) OBJ File: 'angled_Rdoor.blend'
# www.blender.org
mtllib angled_Rdoor.mtl
o Plane
v -0.409074 1.501070 0.401496
v -0.409074 -0.498930 0.401496
v 0.397028 1.501070 -0.404606
v 0.397028 -0.498930 -0.404606
vt 0.421053 1.000000
vt -0.000000 1.000000
vt 0.000000 0.000000
vt 0.421053 0.000000
vn -0.707100 0.000000 -0.707100
usemtl glass
s off
f 1/1/1 3/2/1 4/3/1 2/4/1
o Cube.002_Cube.001
v -0.503075 -0.498926 0.394008
v -0.399111 -0.498897 0.396733
v -0.401835 -0.498934 0.500697
v -0.505799 -0.498963 0.497973
v -0.503647 1.501074 0.394711
v -0.399682 1.501103 0.397435
v -0.402407 1.501066 0.501399
v -0.506371 1.501037 0.498675
vt 0.026316 1.000000
vt 0.026316 0.968750
vt 0.000000 0.968750
vt 0.000100 0.999900
vt 0.842105 1.000000
vt 0.813143 0.999900
vt 0.815789 0.968750
vt 0.842105 0.968750
vt 0.842105 -0.000000
vt 0.815789 1.000000
vt 0.815789 0.000000
vt 0.026316 0.000000
vt 0.000000 1.000000
vt 0.000000 0.000000
vn 0.592100 0.577700 -0.561800
vn 0.592400 -0.577000 -0.562200
usemtl Material
s 1
f 5/5/2 8/6/2 7/7/2 6/8/2
f 9/9/3 10/10/3 11/11/3 12/12/3
f 5/13/2 9/9/3 10/14/3 6/15/2
f 6/16/2 10/5/3 11/17/3 7/18/2
f 7/15/2 8/13/2 12/9/3 11/14/3
f 9/17/3 12/5/3 8/16/2 5/18/2
o Cube.001
v 0.400306 -0.498923 -0.508187
v 0.504263 -0.498828 -0.505199
v 0.501274 -0.498942 -0.401242
v 0.397317 -0.499038 -0.404231
v 0.398407 1.501075 -0.506035
v 0.502365 1.501170 -0.503046
v 0.499376 1.501056 -0.399089
v 0.395419 1.500960 -0.402078
vt 0.026316 1.000000
vt 0.026316 0.968750
vt 0.000000 0.968750
vt 0.000100 0.999900
vt 0.842105 1.000000
vt 0.813143 0.999900
vt 0.815789 0.968750
vt 0.842105 0.968750
vt 0.842105 -0.000000
vt 0.815789 1.000000
vt 0.815789 0.000000
vt 0.026316 0.000000
vt 0.000000 1.000000
vt 0.000000 0.000000
vn 0.593100 0.578500 -0.559900
vn 0.594200 -0.576200 -0.561100
usemtl Material
s 1
f 13/19/4 16/20/4 15/21/4 14/22/4
f 17/23/5 18/24/5 19/25/5 20/26/5
f 13/27/4 17/23/5 18/28/5 14/29/4
f 14/30/4 18/19/5 19/31/5 15/32/4
f 15/29/4 16/27/4 20/23/5 19/28/5
f 17/31/5 20/19/5 16/30/4 13/32/4
