# Blender v2.76 (sub 0) OBJ File: 'angled_Rdoor.blend'
# www.blender.org
mtllib angled_Rdoor_open.mtl
o Cube.003_Cube.000
v -1.382111 -0.507440 -0.387847
v -1.375507 -0.510378 -0.491596
v -1.271718 -0.510468 -0.484987
v -1.278321 -0.507529 -0.381238
v -1.376806 1.491761 -0.444137
v -1.370202 1.488822 -0.547885
v -1.266413 1.488733 -0.541276
v -1.273016 1.491672 -0.437528
vt 0.026316 1.000000
vt 0.026316 0.968750
vt 0.000000 0.968750
vt 0.000100 0.999900
vt 0.842105 1.000000
vt 0.813143 0.999900
vt 0.815789 0.968750
vt 0.842105 0.968750
vt 0.842105 -0.000000
vt 0.815789 1.000000
vt 0.815789 0.000000
vt 0.026316 0.000000
vt 0.000000 1.000000
vt 0.000000 0.000000
vn -0.538000 0.561300 -0.628900
vn -0.541000 -0.592900 -0.596400
usemtl Material
s 1
f 1/1/1 4/2/1 3/3/1 2/4/1
f 5/5/2 6/6/2 7/7/2 8/8/2
f 1/9/1 5/5/2 6/10/2 2/11/1
f 2/12/1 6/1/2 7/13/2 3/14/1
f 3/11/1 4/9/1 8/5/2 7/10/2
f 5/13/2 8/1/2 4/12/1 1/14/1
o Cube.000
v -0.511889 -0.481628 0.546017
v -0.505550 -0.484634 0.442254
v -0.401744 -0.484653 0.448596
v -0.408083 -0.481648 0.552359
v -0.507987 1.517536 0.488352
v -0.501648 1.514531 0.384588
v -0.397842 1.514511 0.390931
v -0.404181 1.517517 0.494694
vt 0.026316 1.000000
vt 0.026316 0.968750
vt 0.000000 0.968750
vt 0.000100 0.999900
vt 0.842105 1.000000
vt 0.813143 0.999900
vt 0.815789 0.968750
vt 0.842105 0.968750
vt 0.842105 -0.000000
vt 0.815789 1.000000
vt 0.815789 0.000000
vt 0.026316 0.000000
vt 0.000000 1.000000
vt 0.000000 0.000000
vn -0.539900 0.560500 -0.627900
vn -0.542200 -0.593700 -0.594600
usemtl Material
s 1
f 9/15/3 12/16/3 11/17/3 10/18/3
f 13/19/4 14/20/4 15/21/4 16/22/4
f 9/23/3 13/19/4 14/24/4 10/25/3
f 10/26/3 14/15/4 15/27/4 11/28/3
f 11/25/3 12/23/3 16/19/4 15/24/4
f 13/27/4 16/15/4 12/26/3 9/28/3
o Plane.001
v -0.497916 1.514770 0.394113
v -0.501136 -0.484379 0.452374
v -1.275487 1.491736 -0.439227
v -1.278707 -0.507413 -0.380966
vt 0.421053 1.000000
vt -0.000000 1.000000
vt 0.000000 0.000000
vt 0.421053 0.000000
vn -0.731300 0.021000 0.681800
usemtl glass
s off
f 17/29/5 19/30/5 20/31/5 18/32/5
