# Blender v2.79 (sub 0) OBJ File: ''
# www.blender.org
mtllib angledwalls_corner.mtl
o Cube.001
v 0.000000 0.499800 -0.499800
v 0.000000 -0.499800 -0.499800
v -0.499800 -0.499800 -0.000000
v -0.499800 0.499800 0.000000
v -0.499800 -0.499800 0.499800
v -0.499800 0.499800 0.499800
v 0.499800 -0.499800 -0.499800
v 0.499800 0.499800 -0.499800
v 0.499800 0.499800 0.499800
v 0.499800 -0.499800 0.499800
vt 0.250000 1.000000
vt 0.250000 0.000000
vt 0.750000 0.000000
vt 0.750000 1.000000
vt 1.000000 0.000000
vt 1.000000 1.000000
vt 1.000000 0.000000
vt 1.000000 1.000000
vt 0.000000 1.000000
vt 0.000000 0.000000
vt 1.000000 0.000000
vt 1.000000 1.000000
vt 0.000000 1.000000
vt 0.000000 0.000000
vt 0.000000 1.000000
vt 0.000000 0.000000
vt 0.312500 0.000000
vt 0.312500 1.000000
vt 0.000000 0.000000
vt 0.500000 0.000000
vt 1.000000 0.500000
vt 1.000000 0.500000
vt 0.000000 1.000000
vt 0.500000 1.000000
vn -0.7071 0.0000 -0.7071
vn -1.0000 0.0000 0.0000
vn 1.0000 -0.0000 0.0000
vn 0.0000 -0.0000 1.0000
vn 0.0000 0.0000 -1.0000
vn 0.0000 1.0000 0.0000
usemtl None.001
s 1
f 1/1/1 2/2/1 3/3/1 4/4/1
f 5/5/2 6/6/2 4/4/2 3/3/2
f 7/7/3 8/8/3 9/9/3 10/10/3
f 10/11/4 9/12/4 6/13/4 5/14/4
f 8/15/5 7/16/5 2/17/5 1/18/5
f 8/19/6 1/20/6 9/9/6
f 6/6/6 9/9/6 4/21/6
f 1/20/6 4/21/6 9/9/6
f 5/5/6 10/10/6 3/22/6
f 10/10/6 7/23/6 2/24/6
f 2/24/6 3/22/6 10/10/6
