# Blender v2.77 (sub 0) OBJ File: 'angledwalls_glass.blend'
# www.blender.org
o Cube
v 0.375000 -0.500000 -0.375000
v 0.375000 -0.500000 -0.500000
v 0.500000 -0.500000 -0.500000
v 0.500000 -0.500000 -0.375000
v 0.375000 0.500000 -0.375000
v 0.375000 0.500000 -0.500000
v 0.500000 0.500000 -0.500000
v 0.500000 0.500000 -0.375000
v -0.375000 -0.500000 0.375000
v -0.375000 -0.500000 0.500000
v -0.500000 -0.500000 0.500000
v -0.500000 -0.500000 0.375000
v -0.375000 0.500000 0.375000
v -0.375000 0.500000 0.500000
v -0.500000 0.500000 0.500000
v -0.500000 0.500000 0.375000
vt -0.0000 0.0000
vt 0.0000 0.1250
vt 0.0833 0.1250
vt 0.0833 -0.0000
vt -0.0000 0.8750
vt 0.0833 0.8750
vt 0.0833 1.0000
vt 0.0000 1.0000
vt 0.0000 1.0000
vt 0.0833 1.0000
vt 0.0833 0.0000
vt 0.0000 0.0000
vt 0.0833 0.0000
vt -0.0000 1.0000
vt 0.0000 0.0000
vt 0.0833 1.0000
vt 1.0000 0.1250
vt 1.0000 0.0000
vt 0.9167 0.0000
vt 0.9167 0.1250
vt 1.0000 1.0000
vt 0.9167 1.0000
vt 0.9167 0.8750
vt 1.0000 0.8750
vt 1.0000 0.0000
vt 0.9167 1.0000
vt 0.9167 0.0000
vt 1.0000 1.0000
vt 0.9167 1.0000
vt 1.0000 1.0000
vt 1.0000 0.0000
vt 0.9167 0.0000
vt 0.8333 0.0001
vt 0.8333 0.9999
vt 0.1667 0.9999
vt 0.1667 0.0001
vn 0.0000 -1.0000 0.0000
vn 0.0000 1.0000 0.0000
vn -1.0000 0.0000 -0.0000
vn 0.0000 0.0000 -1.0000
vn 1.0000 -0.0000 0.0000
vn -0.0000 0.0000 1.0000
vn -0.7071 0.0000 -0.7071
s off
f 1/1/1 2/2/1 3/3/1 4/4/1
f 5/5/2 8/6/2 7/7/2 6/8/2
f 1/1/3 5/9/3 6/10/3 2/11/3
f 2/12/4 6/8/4 7/7/4 3/13/4
f 3/13/5 7/7/5 8/14/5 4/15/5
f 5/9/6 1/1/6 4/4/6 8/16/6
f 9/17/1 10/18/1 11/19/1 12/20/1
f 13/21/2 16/22/2 15/23/2 14/24/2
f 9/25/5 13/21/5 14/26/5 10/27/5
f 10/18/6 14/28/6 15/29/6 11/19/6
f 11/19/3 15/29/3 16/30/3 12/31/3
f 13/21/4 9/25/4 12/32/4 16/22/4
f 9/33/7 13/34/7 5/35/7 1/36/7
