# Blender v2.76 (sub 0) OBJ File: 'angled_glass.blend'
# www.blender.org
mtllib angled_glass.mtl
o Plane
v -0.409074 0.501326 0.401496
v -0.409074 -0.498675 0.401496
v 0.397028 0.501326 -0.404606
v 0.397028 -0.498675 -0.404606
vt 0.000100 0.000100
vt 0.000100 0.999900
vt 0.999900 0.999900
vt 0.999900 0.000100
vn -0.707100 0.000000 -0.707100
g Plane_Plane_glass
usemtl glass
s off
f 1/1/1 3/2/1 4/3/1 2/4/1
o Cube.002_Cube.001
v -0.503217 -0.500153 0.394183
v -0.399253 -0.500124 0.396907
v -0.401977 -0.500162 0.500871
v -0.505941 -0.500190 0.498147
v -0.503505 0.505522 0.394536
v -0.399540 0.505551 0.397260
v -0.402265 0.505514 0.501225
v -0.506229 0.505485 0.498500
vt 0.186857 0.995963
vt 0.188826 0.809206
vt 0.000100 0.813143
vt 0.000100 0.999900
vt 0.999900 0.999900
vt 0.813143 0.999900
vt 0.813143 0.809206
vt 0.995962 0.805268
vt 0.999900 0.000100
vt 0.862600 0.999900
vt 0.856350 0.000100
vt 1.001384 0.002580
vt 0.996493 0.995822
vt 0.815330 0.995705
vt 0.816791 -0.002396
vt 0.000100 0.000100
vt 0.196700 0.000100
vt 0.192763 1.001869
vt 0.872947 0.997186
vt 1.007107 1.002147
vt 0.994194 -0.004116
vt 0.872947 -0.002303
vn 0.592100 0.577700 -0.561800
vn 0.592400 -0.577000 -0.562200
g Cube.002_Cube.001_Material
usemtl Material
s 1
f 5/5/2 8/6/2 7/7/2 6/8/2
f 9/9/3 10/10/3 11/11/3 12/12/3
g Cube.002_Cube.001_Material_default_wood.png
usemtl Material_default_wood.png
f 5/13/2 9/9/3 10/14/3 6/15/2
f 6/16/2 10/17/3 11/18/3 7/19/2
f 7/20/2 8/21/2 12/22/3 11/8/3
f 9/23/3 12/24/3 8/25/2 5/26/2
o Cube.001
v 0.400298 -0.500147 -0.508178
v 0.504255 -0.500052 -0.505189
v 0.501266 -0.500166 -0.401232
v 0.397309 -0.500262 -0.404221
v 0.399343 0.505527 -0.507096
v 0.503300 0.505623 -0.504107
v 0.500311 0.505508 -0.400150
v 0.396354 0.505413 -0.403139
vt 0.186857 0.995963
vt 0.188826 0.809206
vt 0.000100 0.813143
vt 0.000100 0.999900
vt 0.999900 0.999900
vt 0.813143 0.999900
vt 0.813143 0.809206
vt 0.995962 0.805268
vt 0.999900 0.000100
vt 0.862600 0.999900
vt 0.856350 0.000100
vt 1.001384 0.002580
vt 0.996493 0.995822
vt 0.815330 0.995705
vt 0.816791 -0.002396
vt 0.000100 0.000100
vt 0.196700 0.000100
vt 0.192763 1.001869
vt 0.872947 0.997186
vt 1.007107 1.002147
vt 0.994194 -0.004116
vt 0.872947 -0.002303
vn 0.593100 0.578500 -0.559900
vn 0.594200 -0.576200 -0.561100
g Cube.001_Cube.001_Material
usemtl Material
s 1
f 13/27/4 16/28/4 15/29/4 14/30/4
f 17/31/5 18/32/5 19/33/5 20/34/5
g Cube.001_Cube.001_Material_default_wood.png
usemtl Material_default_wood.png
f 13/35/4 17/31/5 18/36/5 14/37/4
f 14/38/4 18/39/5 19/40/5 15/41/4
f 15/42/4 16/43/4 20/44/5 19/30/5
f 17/45/5 20/46/5 16/47/4 13/48/4
