# Blender v2.79 (sub 0) OBJ File: ''
# www.blender.org
mtllib angled_wall.mtl
o Cube.004
v 0.000000 0.499800 -0.500000
v 0.000000 -0.499800 -0.500000
v -0.500000 -0.499800 -0.000000
v -0.500000 0.499800 0.000000
v -0.500000 -0.499800 0.500000
v -0.500000 0.499800 0.500000
v 0.500000 -0.499800 -0.500000
v 0.500000 0.499800 -0.500000
v 0.500000 0.499800 0.000000
v 0.500000 -0.499800 -0.000000
v 0.000000 -0.499800 0.500000
v 0.000000 0.499800 0.500000
vt 0.250000 1.000000
vt 0.250000 0.000000
vt 0.750000 0.000000
vt 0.750000 1.000000
vt 1.000000 0.000000
vt 1.000000 1.000000
vt 1.000000 0.000000
vt 1.000000 1.000000
vt 0.750000 1.000000
vt 0.750000 0.000000
vt 0.250000 0.000000
vt 0.250000 1.000000
vt -0.000000 1.000000
vt -0.000000 0.000000
vt -0.000000 1.000000
vt 0.000000 0.000000
vt 0.500000 0.000000
vt -0.000000 0.500000
vt -0.000000 0.000000
vt 0.500000 1.000000
vt 1.000000 0.500000
vt 0.000000 0.500000
vt 0.000000 1.000000
vt 0.500000 1.000000
vt 0.500000 0.000000
vt 1.000000 0.500000
vn -0.7071 0.0000 -0.7071
vn -1.0000 -0.0000 0.0000
vn 1.0000 -0.0000 0.0000
vn 0.0000 -0.0000 1.0000
vn 0.7071 -0.0000 0.7071
vn 0.0000 0.0000 -1.0000
vn 0.0000 1.0000 0.0000
usemtl None
s 1
f 1/1/1 2/2/1 3/3/1 4/4/1
f 5/5/2 6/6/2 4/4/2 3/3/2
f 7/7/3 8/8/3 9/9/3 10/10/3
f 11/11/4 12/12/4 6/13/4 5/14/4
f 12/12/5 11/11/5 10/10/5 9/9/5
f 8/15/6 7/16/6 2/2/6 1/1/6
f 1/17/7 9/18/7 8/19/7
f 6/6/7 12/20/7 4/21/7
f 1/17/7 4/21/7 12/20/7 9/18/7
f 10/22/7 7/23/7 2/24/7
f 5/5/7 11/25/7 3/26/7
f 2/24/7 3/26/7 11/25/7 10/22/7
