# Blender v2.79 (sub 0) OBJ File: ''
# www.blender.org
mtllib low_angled_wall.mtl
o Cube
v 0.000000 -0.000200 -0.499800
v 0.000000 -0.499800 -0.499800
v -0.499800 -0.499800 -0.000000
v -0.499800 -0.000200 -0.000000
v -0.499800 -0.499800 0.499800
v -0.499800 -0.000200 0.499800
v 0.499800 -0.499800 -0.499800
v 0.499800 -0.000200 -0.499800
v 0.499800 0.000000 0.000000
v 0.499800 -0.499800 -0.000000
v 0.000000 -0.499800 0.499800
v 0.000000 -0.000000 0.499800
vt 0.250000 0.500000
vt 0.250000 0.000000
vt 0.750000 0.000000
vt 0.750000 0.500000
vt 1.000000 0.000000
vt 1.000000 0.500000
vt 1.000000 0.000000
vt 1.000000 0.500000
vt 0.750000 0.500000
vt 0.750000 0.000000
vt 0.250000 -0.000000
vt 0.250000 0.500000
vt -0.000000 0.500000
vt -0.000000 0.000000
vt -0.000000 0.500000
vt 0.000000 0.000000
vt 0.500000 0.000000
vt -0.000000 0.500000
vt -0.000000 0.000000
vt 1.000000 1.000000
vt 0.500000 1.000000
vt 1.000000 0.500000
vt 0.000000 0.500000
vt 0.500000 1.000000
vt 0.000000 1.000000
vt 1.000000 0.500000
vt 0.500000 0.000000
vn -0.7071 0.0000 -0.7071
vn -0.2971 -0.6303 -0.7173
vn -0.7173 -0.6303 -0.2971
vn -0.5774 -0.5774 0.5774
vn -1.0000 0.0000 0.0000
vn 0.5774 -0.5774 -0.5774
vn 1.0000 -0.0000 0.0000
vn 0.7173 -0.6303 0.2971
vn 0.2971 -0.6303 0.7173
vn -0.0000 -0.0000 1.0000
vn 0.7071 -0.0000 0.7071
vn 0.0000 0.0000 -1.0000
vn -0.0001 1.0000 -0.0003
vn 0.0000 1.0000 -0.0004
vn -0.0004 1.0000 0.0000
vn -0.0003 1.0000 -0.0001
usemtl None
s 1
f 1/1/1 2/2/2 3/3/3 4/4/1
f 5/5/4 6/6/5 4/4/5 3/3/3
f 7/7/6 8/8/7 9/9/7 10/10/8
f 11/11/9 12/12/10 6/13/10 5/14/4
f 12/12/11 11/11/9 10/10/8 9/9/11
f 8/15/12 7/16/6 2/2/2 1/1/12
f 1/17/13 9/18/13 8/19/14
f 6/20/15 12/21/16 4/22/16
f 1/17/13 4/22/16 12/21/16 9/18/13
f 10/23/8 2/24/2 7/25/6
f 5/5/4 3/26/3 11/27/9
f 2/24/2 10/23/8 11/27/9 3/26/3
