# Blender v2.79 (sub 0) OBJ File: ''
# www.blender.org
mtllib low_angled_wall.mtl
o Cube.006
v 0.000000 -0.000200 -0.500000
v 0.000000 -0.499800 -0.500000
v -0.500000 -0.499800 -0.000000
v -0.500000 -0.000200 -0.000000
v -0.500000 -0.499800 0.500000
v -0.500000 -0.000200 0.500000
v 0.500000 -0.499800 -0.500000
v 0.500000 -0.000200 -0.500000
v 0.500000 0.000000 0.000000
v 0.500000 -0.499800 -0.000000
v 0.000000 -0.499800 0.500000
v 0.000000 -0.000000 0.500000
vt 0.250000 0.500000
vt 0.250000 0.000000
vt 0.750000 0.000000
vt 0.750000 0.500000
vt 1.000000 0.000000
vt 1.000000 0.500000
vt 1.000000 0.000000
vt 1.000000 0.500000
vt 0.750000 0.500000
vt 0.750000 0.000000
vt 0.250000 -0.000000
vt 0.250000 0.500000
vt -0.000000 0.500000
vt -0.000000 0.000000
vt -0.000000 0.500000
vt 0.000000 0.000000
vt 0.500000 0.000000
vt -0.000000 0.500000
vt -0.000000 0.000000
vt 1.000000 1.000000
vt 0.500000 1.000000
vt 1.000000 0.500000
vt 0.000000 0.500000
vt 0.000000 1.000000
vt 0.500000 1.000000
vt 0.500000 0.000000
vt 1.000000 0.500000
vn -0.7071 0.0000 -0.7071
vn -1.0000 -0.0000 0.0000
vn 1.0000 -0.0000 0.0000
vn 0.0000 -0.0000 1.0000
vn 0.7071 -0.0000 0.7071
vn 0.0000 0.0000 -1.0000
vn -0.0001 1.0000 -0.0003
vn 0.0000 1.0000 -0.0004
vn -0.0004 1.0000 0.0000
vn -0.0003 1.0000 -0.0001
vn 0.0000 1.0000 0.0000
usemtl None
s 1
f 1/1/1 2/2/1 3/3/1 4/4/1
f 5/5/2 6/6/2 4/4/2 3/3/2
f 7/7/3 8/8/3 9/9/3 10/10/3
f 11/11/4 12/12/4 6/13/4 5/14/4
f 12/12/5 11/11/5 10/10/5 9/9/5
f 8/15/6 7/16/6 2/2/6 1/1/6
f 1/17/7 9/18/7 8/19/8
f 6/20/9 12/21/10 4/22/10
f 1/17/7 4/22/10 12/21/10 9/18/7
f 10/23/11 7/24/11 2/25/11
f 5/5/11 11/26/11 3/27/11
f 2/25/11 3/27/11 11/26/11 10/23/11
